G04 DipTrace 3.0.0.1*
G04 BottomMask.gbr*
%MOIN*%
G04 #@! TF.FileFunction,Soldermask,Bot*
G04 #@! TF.Part,Single*
%ADD21R,0.066929X0.066929*%
%ADD22C,0.066929*%
%ADD26R,0.074803X0.074803*%
%ADD27C,0.074803*%
%ADD32C,0.137795*%
%ADD41C,0.057874*%
%ADD43C,0.057874*%
%ADD45C,0.082677*%
%ADD46R,0.082677X0.082677*%
%ADD47C,0.066929*%
%ADD49C,0.070866*%
%ADD51R,0.070866X0.070866*%
%ADD55C,0.081874*%
%FSLAX26Y26*%
G04*
G70*
G90*
G75*
G01*
G04 BotMask*
%LPD*%
D55*
X680575Y3599043D3*
Y3499043D3*
Y3399043D3*
Y3299043D3*
Y3199043D3*
Y3099043D3*
Y2999043D3*
Y2899043D3*
Y2799043D3*
Y2699043D3*
Y2599043D3*
Y2499043D3*
X680757Y2399458D3*
Y2299458D3*
Y2199458D3*
Y2099458D3*
Y1999458D3*
Y1899458D3*
X1380757Y3599458D3*
Y3499458D3*
Y3399458D3*
Y3299458D3*
Y3199458D3*
Y3099458D3*
Y2999458D3*
Y2899458D3*
Y2799458D3*
Y2699458D3*
Y2599458D3*
Y2499458D3*
Y2399458D3*
Y2299458D3*
Y2199458D3*
Y2099458D3*
Y1999458D3*
Y1899458D3*
X680575Y3699043D3*
X1380575D3*
X1746381Y2754374D3*
X1846381D3*
X1946381D3*
X2046381D3*
X2146381D3*
X2246381D3*
X2346381D3*
X2446381D3*
X1755068Y2332726D3*
Y2232726D3*
Y2132726D3*
Y2032726D3*
Y1932726D3*
X2380068Y2332726D3*
Y2232726D3*
Y2132726D3*
Y2032726D3*
Y1932726D3*
D32*
X2244093Y551181D3*
X688976D3*
X2244093Y3877953D3*
X688976D3*
D21*
X534596Y3690993D3*
D22*
Y3590993D3*
Y3490993D3*
Y3390993D3*
Y3290993D3*
Y3190993D3*
Y3090993D3*
Y2990993D3*
Y2890993D3*
Y2790993D3*
Y2690993D3*
Y2590993D3*
Y2490993D3*
Y2390993D3*
Y2290993D3*
Y2190993D3*
Y2090993D3*
Y1990993D3*
Y1890993D3*
D21*
X1530085Y1894954D3*
D22*
Y1994954D3*
Y2094954D3*
Y2194954D3*
Y2294954D3*
Y2394954D3*
Y2494954D3*
Y2594954D3*
Y2694954D3*
Y2794954D3*
Y2894954D3*
Y2994954D3*
Y3094954D3*
Y3194954D3*
Y3294954D3*
Y3394954D3*
Y3494954D3*
Y3594954D3*
Y3694954D3*
D26*
X1735383Y3651623D3*
D27*
X1835383D3*
X1935383D3*
X2035383D3*
X2135383D3*
X2235383D3*
X2335383D3*
X2435383D3*
D26*
X1538533Y1683119D3*
D27*
X1638533D3*
X1738533D3*
X1838533D3*
X1938533D3*
X2038533D3*
X2138533D3*
X2238533D3*
X2338533D3*
X2438533D3*
D51*
X826770Y1594488D3*
D49*
X748030D3*
D51*
X1318896D3*
D49*
X1240156D3*
D47*
X534596Y1683119D3*
D46*
X2159005Y2490206D3*
D45*
X2259005D3*
X2359005D3*
D43*
X1683808Y2537056D3*
D41*
X1983808D3*
M02*
