M48
INCH
T01C0.02
T02C0.022
T03C0.0354
T04C0.0394
T05C0.04
T06C0.0433
T07C0.1378
%
T01
X+024486Y+019701
X+019354Y+032983
T02
X+016838Y+025371
X+019838Y+025371
T03
X+005346Y+016831
T04
X+008268Y+016142
X+007480Y+016142
X+012402Y+016142
X+013189Y+016142
T05
X+006808Y+036495
X+006808Y+035495
X+006808Y+034495
X+006808Y+033495
X+006808Y+032495
X+006808Y+031495
X+006808Y+030495
X+006808Y+029495
X+006808Y+028495
X+006808Y+027495
X+006808Y+026495
X+006808Y+025495
X+006808Y+024495
X+006808Y+023495
X+006808Y+022495
X+006808Y+021495
X+006808Y+020495
X+006808Y+019495
X+013808Y+019495
X+013808Y+020495
X+013808Y+021495
X+013808Y+022495
X+013808Y+023495
X+013808Y+024495
X+013808Y+025495
X+013808Y+026495
X+013808Y+027495
X+013808Y+028495
X+013808Y+029495
X+013808Y+030495
X+013808Y+031495
X+013808Y+032495
X+013808Y+033495
X+013808Y+034495
X+013808Y+035495
X+013808Y+036495
X+017464Y+027544
X+018464Y+027544
X+019464Y+027544
X+020464Y+027544
X+021464Y+027544
X+022464Y+027544
X+023464Y+027544
X+024464Y+027544
X+023801Y+023327
X+023801Y+022327
X+023801Y+021327
X+023801Y+020327
X+023801Y+019327
X+017551Y+019327
X+017551Y+020327
X+017551Y+021327
X+017551Y+022327
X+017551Y+023327
T06
X+005233Y+036495
X+005233Y+035495
X+005233Y+034495
X+005233Y+033495
X+005233Y+032495
X+005233Y+031495
X+005233Y+030495
X+005233Y+029495
X+005233Y+028495
X+005233Y+027495
X+005233Y+026495
X+005233Y+025495
X+005233Y+024495
X+005233Y+023495
X+005233Y+022495
X+005233Y+021495
X+005233Y+020495
X+005233Y+019495
X+015469Y+019495
X+015469Y+020495
X+015469Y+021495
X+015469Y+022495
X+015469Y+023495
X+015469Y+024495
X+015469Y+025495
X+015469Y+026495
X+015469Y+027495
X+015469Y+028495
X+015469Y+029495
X+015469Y+030495
X+015469Y+031495
X+015469Y+032495
X+015469Y+033495
X+015469Y+034495
X+015469Y+035495
X+015469Y+036495
X+017354Y+036516
X+018354Y+036516
X+019354Y+036516
X+020354Y+036516
X+021354Y+036516
X+022354Y+036516
X+023354Y+036516
X+024354Y+036516
X+023590Y+024902
X+022590Y+024902
X+021590Y+024902
X+021385Y+016831
X+022385Y+016831
X+023385Y+016831
X+024385Y+016831
X+020385Y+016831
X+019385Y+016831
X+018385Y+016831
X+017385Y+016831
X+016385Y+016831
X+015385Y+016831
T07
X+022441Y+005512
X+006890Y+005512
X+006890Y+038780
X+022441Y+038780
T00
M30
