M48
INCH
T01C0.02
T02C0.022
T03C0.0354
T04C0.0394
T05C0.04
T06C0.0433
T07C0.1378
%
T01
X+019354Y+032422
X+022385Y+020759
X+020874Y+020327
T02
X+016838Y+025371
X+019838Y+025371
T03
X+005346Y+036910
X+005346Y+035910
X+005346Y+034910
X+005346Y+033910
X+005346Y+032910
X+005346Y+031910
X+005346Y+030910
X+005346Y+029910
X+005346Y+028910
X+005346Y+027910
X+005346Y+026910
X+005346Y+025910
X+005346Y+024910
X+005346Y+023910
X+005346Y+022910
X+005346Y+021910
X+005346Y+020910
X+005346Y+019910
X+005346Y+018910
X+005346Y+016831
X+015301Y+018950
X+015301Y+019950
X+015301Y+020950
X+015301Y+021950
X+015301Y+022950
X+015301Y+023950
X+015301Y+024950
X+015301Y+025950
X+015301Y+026950
X+015301Y+027950
X+015301Y+028950
X+015301Y+029950
X+015301Y+030950
X+015301Y+031950
X+015301Y+032950
X+015301Y+033950
X+015301Y+034950
X+015301Y+035950
X+015301Y+036950
T04
X+008268Y+015945
X+007480Y+015945
X+012402Y+015945
X+013189Y+015945
T05
X+006806Y+035990
X+006806Y+036990
X+006806Y+034990
X+006806Y+033990
X+006806Y+032990
X+006806Y+031990
X+006806Y+030990
X+006806Y+029990
X+006806Y+028990
X+006806Y+027990
X+006806Y+026990
X+006806Y+025990
X+006806Y+024990
X+006808Y+023995
X+006808Y+022995
X+006808Y+021995
X+006808Y+020995
X+006808Y+019995
X+006808Y+018995
X+013808Y+018995
X+013808Y+019995
X+013808Y+020995
X+013808Y+021995
X+013808Y+022995
X+013808Y+023995
X+013808Y+024995
X+013808Y+025995
X+013808Y+026995
X+013808Y+027995
X+013808Y+028995
X+013808Y+029995
X+013808Y+030995
X+013808Y+031995
X+013808Y+032995
X+013808Y+033995
X+013808Y+034995
X+013808Y+035995
X+013806Y+036990
X+017464Y+027544
X+018464Y+027544
X+019464Y+027544
X+020464Y+027544
X+021464Y+027544
X+022464Y+027544
X+023464Y+027544
X+024464Y+027544
X+023801Y+023327
X+023801Y+022327
X+023801Y+021327
X+023801Y+020327
X+023801Y+019327
X+017551Y+019327
X+017551Y+020327
X+017551Y+021327
X+017551Y+022327
X+017551Y+023327
T06
X+017354Y+036516
X+018354Y+036516
X+019354Y+036516
X+020354Y+036516
X+021354Y+036516
X+022354Y+036516
X+023354Y+036516
X+024354Y+036516
X+023590Y+024902
X+022590Y+024902
X+021590Y+024902
X+021385Y+016831
X+022385Y+016831
X+023385Y+016831
X+024385Y+016831
X+020385Y+016831
X+019385Y+016831
X+018385Y+016831
X+017385Y+016831
X+016385Y+016831
X+015385Y+016831
T07
X+022441Y+005512
X+006890Y+005512
X+006890Y+038780
X+022441Y+038780
T00
M30
