G04 DipTrace 3.0.0.1*
G04 TopDimension.gbr*
%MOIN*%
G04 #@! TF.FileFunction,Drawing,Top*
G04 #@! TF.Part,Single*
%ADD13C,0.001378*%
%ADD61C,0.006176*%
%FSLAX26Y26*%
G04*
G70*
G90*
G75*
G01*
G04 TopDimension*
%LPD*%
X2244093Y551181D2*
D13*
X2657479D1*
X2244093Y3877953D2*
X2657479D1*
X2637794Y2214567D2*
Y590551D1*
G36*
Y551181D2*
X2629920Y590551D1*
X2645668D1*
X2637794Y551181D1*
G37*
Y2214567D2*
D13*
Y3838583D1*
G36*
Y3877953D2*
X2645668Y3838583D1*
X2629920D1*
X2637794Y3877953D1*
G37*
X2244093D2*
D13*
Y4153543D1*
X688976Y3877953D2*
Y4153543D1*
X1466535Y4133858D2*
X2204723D1*
G36*
X2244093D2*
X2204723Y4125984D1*
Y4141732D1*
X2244093Y4133858D1*
G37*
X1466535D2*
D13*
X728346D1*
G36*
X688976D2*
X728346Y4141732D1*
Y4125984D1*
X688976Y4133858D1*
G37*
X2539369Y4035433D2*
D13*
Y4153543D1*
X2244093Y3877953D2*
Y4153543D1*
X2391731Y4133858D2*
X2499999D1*
G36*
X2539369D2*
X2499999Y4125984D1*
Y4141732D1*
X2539369Y4133858D1*
G37*
X2391731D2*
D13*
X2283463D1*
G36*
X2244093D2*
X2283463Y4141732D1*
Y4125984D1*
X2244093Y4133858D1*
G37*
X688976Y3877953D2*
D13*
Y4153543D1*
X393701Y3877953D2*
Y4153543D1*
X541339Y4133858D2*
X649606D1*
G36*
X688976D2*
X649606Y4125984D1*
Y4141732D1*
X688976Y4133858D1*
G37*
X541339D2*
D13*
X433071D1*
G36*
X393701D2*
X433071Y4141732D1*
Y4125984D1*
X393701Y4133858D1*
G37*
X2539369Y393701D2*
D13*
X2657479D1*
X2244093Y551181D2*
X2657479D1*
X2637794Y472441D2*
Y433071D1*
G36*
Y393701D2*
X2629920Y433071D1*
X2645668D1*
X2637794Y393701D1*
G37*
Y472441D2*
D13*
Y511811D1*
G36*
Y551181D2*
X2645668Y511811D1*
X2629920D1*
X2637794Y551181D1*
G37*
X2244093Y3877953D2*
D13*
X2657479D1*
X2244093Y4035433D2*
X2657479D1*
X2637794Y3956693D2*
Y3917323D1*
G36*
Y3877953D2*
X2629920Y3917323D1*
X2645668D1*
X2637794Y3877953D1*
G37*
Y3956693D2*
D13*
Y3996063D1*
G36*
Y4035433D2*
X2645668Y3996063D1*
X2629920D1*
X2637794Y4035433D1*
G37*
X688976Y482283D2*
D13*
X236220D1*
X688976Y620079D2*
X236220D1*
X255906D2*
Y482283D1*
Y679134D2*
Y659449D1*
G36*
Y620079D2*
X248031Y659449D1*
X263780D1*
X255906Y620079D1*
G37*
Y423228D2*
D13*
Y442913D1*
G36*
Y482283D2*
X263780Y442913D1*
X248031D1*
X255906Y482283D1*
G37*
X393701Y393701D2*
D13*
X118110D1*
X393701Y4035433D2*
X118110D1*
X137795Y2214567D2*
Y433071D1*
G36*
Y393701D2*
X129921Y433071D1*
X145669D1*
X137795Y393701D1*
G37*
Y2214567D2*
D13*
Y3996063D1*
G36*
Y4035433D2*
X145669Y3996063D1*
X129921D1*
X137795Y4035433D1*
G37*
X393701Y452756D2*
D13*
Y275591D1*
X2539369Y452756D2*
Y275591D1*
X1466535Y295276D2*
X433071D1*
G36*
X393701D2*
X433071Y303150D1*
Y287402D1*
X393701Y295276D1*
G37*
X1466535D2*
D13*
X2499999D1*
G36*
X2539369D2*
X2499999Y287402D1*
Y303150D1*
X2539369Y295276D1*
G37*
X700066Y1526080D2*
D13*
X-51181D1*
X737946Y392039D2*
X-51181D1*
X-31496Y959060D2*
Y1486710D1*
G36*
Y1526080D2*
X-23622Y1486710D1*
X-39370D1*
X-31496Y1526080D1*
G37*
Y959060D2*
D13*
Y431409D1*
G36*
Y392039D2*
X-39370Y431409D1*
X-23622D1*
X-31496Y392039D1*
G37*
X2690153Y2263500D2*
D61*
X2688251Y2269203D1*
X2684449Y2271149D1*
X2680602D1*
X2676799Y2269203D1*
X2674854Y2265401D1*
X2672953Y2257751D1*
X2671051Y2252003D1*
X2667205Y2248201D1*
X2663402Y2246300D1*
X2657654D1*
X2653851Y2248201D1*
X2651906Y2250102D1*
X2650005Y2255850D1*
Y2263500D1*
X2651906Y2269203D1*
X2653851Y2271149D1*
X2657654Y2273050D1*
X2663402D1*
X2667205Y2271149D1*
X2671051Y2267302D1*
X2672953Y2261598D1*
X2674854Y2253949D1*
X2676799Y2250102D1*
X2680602Y2248201D1*
X2684449D1*
X2688251Y2250102D1*
X2690153Y2255850D1*
Y2263500D1*
X2650005Y2214803D2*
X2690153D1*
X2663402Y2233948D1*
Y2205252D1*
X2653851Y2191000D2*
X2651906Y2192901D1*
X2650005Y2191000D1*
X2651906Y2189054D1*
X2653851Y2191000D1*
X2690153Y2153755D2*
Y2172856D1*
X2672953Y2174757D1*
X2674854Y2172856D1*
X2676799Y2167108D1*
Y2161404D1*
X2674854Y2155656D1*
X2671051Y2151809D1*
X2665303Y2149908D1*
X2661501D1*
X2655753Y2151809D1*
X2651906Y2155656D1*
X2650005Y2161404D1*
Y2167108D1*
X2651906Y2172856D1*
X2653851Y2174757D1*
X2657654Y2176703D1*
X1413778Y4186217D2*
X1434780D1*
X1423328Y4170918D1*
X1429076D1*
X1432879Y4169017D1*
X1434780Y4167116D1*
X1436725Y4161368D1*
Y4157565D1*
X1434780Y4151817D1*
X1430977Y4147970D1*
X1425229Y4146069D1*
X1419481D1*
X1413778Y4147970D1*
X1411876Y4149916D1*
X1409931Y4153718D1*
X1473970Y4172864D2*
X1472025Y4167116D1*
X1468222Y4163269D1*
X1462474Y4161368D1*
X1460573D1*
X1454825Y4163269D1*
X1451022Y4167116D1*
X1449077Y4172864D1*
Y4174765D1*
X1451022Y4180513D1*
X1454825Y4184316D1*
X1460573Y4186217D1*
X1462474D1*
X1468222Y4184316D1*
X1472025Y4180513D1*
X1473970Y4172864D1*
Y4163269D1*
X1472025Y4153718D1*
X1468222Y4147970D1*
X1462474Y4146069D1*
X1458672D1*
X1452924Y4147970D1*
X1451022Y4151817D1*
X1488223Y4149916D2*
X1486322Y4147970D1*
X1488223Y4146069D1*
X1490168Y4147970D1*
X1488223Y4149916D1*
X1525468Y4186217D2*
X1506367D1*
X1504465Y4169017D1*
X1506367Y4170918D1*
X1512115Y4172864D1*
X1517818D1*
X1523566Y4170918D1*
X1527413Y4167116D1*
X1529314Y4161368D1*
Y4157565D1*
X1527413Y4151817D1*
X1523566Y4147970D1*
X1517818Y4146069D1*
X1512115D1*
X1506367Y4147970D1*
X1504465Y4149916D1*
X1502520Y4153718D1*
X2361399Y4146069D2*
X2380544Y4186217D1*
X2353749D1*
X2394797Y4149916D2*
X2392895Y4147970D1*
X2394797Y4146069D1*
X2396742Y4147970D1*
X2394797Y4149916D1*
X2432042Y4186217D2*
X2412940D1*
X2411039Y4169017D1*
X2412940Y4170918D1*
X2418688Y4172864D1*
X2424392D1*
X2430140Y4170918D1*
X2433987Y4167116D1*
X2435888Y4161368D1*
Y4157565D1*
X2433987Y4151817D1*
X2430140Y4147970D1*
X2424392Y4146069D1*
X2418688D1*
X2412940Y4147970D1*
X2411039Y4149916D1*
X2409094Y4153718D1*
X511006Y4146069D2*
X530152Y4186217D1*
X503357D1*
X544404Y4149916D2*
X542503Y4147970D1*
X544404Y4146069D1*
X546350Y4147970D1*
X544404Y4149916D1*
X581649Y4186217D2*
X562548D1*
X560647Y4169017D1*
X562548Y4170918D1*
X568296Y4172864D1*
X574000D1*
X579748Y4170918D1*
X583595Y4167116D1*
X585496Y4161368D1*
Y4157565D1*
X583595Y4151817D1*
X579748Y4147970D1*
X574000Y4146069D1*
X568296D1*
X562548Y4147970D1*
X560647Y4149916D1*
X558701Y4153718D1*
X2650005Y464556D2*
X2690153D1*
X2663402Y483701D1*
Y455005D1*
X2650005Y3948808D2*
X2690153D1*
X2663402Y3967953D1*
Y3939257D1*
X203547Y517046D2*
Y538049D1*
X218846Y526597D1*
Y532345D1*
X220747Y536147D1*
X222648Y538049D1*
X228396Y539994D1*
X232199D1*
X237947Y538049D1*
X241793Y534246D1*
X243695Y528498D1*
Y522750D1*
X241793Y517046D1*
X239848Y515145D1*
X236045Y513200D1*
X239848Y554247D2*
X241793Y552346D1*
X243695Y554247D1*
X241793Y556192D1*
X239848Y554247D1*
X203547Y591492D2*
Y572390D1*
X220747Y570489D1*
X218846Y572390D1*
X216900Y578139D1*
Y583842D1*
X218846Y589590D1*
X222648Y593437D1*
X228396Y595338D1*
X232199D1*
X237947Y593437D1*
X241793Y589590D1*
X243695Y583842D1*
Y578139D1*
X241793Y572390D1*
X239848Y570489D1*
X236045Y568544D1*
X98790Y2182856D2*
X104538Y2180911D1*
X108385Y2177108D1*
X110286Y2171360D1*
Y2169459D1*
X108385Y2163711D1*
X104538Y2159908D1*
X98790Y2157963D1*
X96889D1*
X91141Y2159908D1*
X87338Y2163711D1*
X85437Y2169459D1*
Y2171360D1*
X87338Y2177108D1*
X91141Y2180911D1*
X98790Y2182856D1*
X108385D1*
X117935Y2180911D1*
X123683Y2177108D1*
X125585Y2171360D1*
Y2167558D1*
X123683Y2161810D1*
X119836Y2159908D1*
X94987Y2197153D2*
X93086D1*
X89239Y2199054D1*
X87338Y2200956D1*
X85437Y2204803D1*
Y2212452D1*
X87338Y2216254D1*
X89239Y2218156D1*
X93086Y2220101D1*
X96889D1*
X100735Y2218156D1*
X106439Y2214353D1*
X125585Y2195208D1*
Y2222002D1*
X121738Y2236255D2*
X123683Y2234354D1*
X125585Y2236255D1*
X123683Y2238201D1*
X121738Y2236255D1*
X85437Y2273500D2*
Y2254399D1*
X102637Y2252497D1*
X100735Y2254399D1*
X98790Y2260147D1*
Y2265851D1*
X100735Y2271599D1*
X104538Y2275445D1*
X110286Y2277347D1*
X114088D1*
X119836Y2275445D1*
X123683Y2271599D1*
X125585Y2265851D1*
Y2260147D1*
X123683Y2254399D1*
X121738Y2252497D1*
X117935Y2250552D1*
X1430977Y347634D2*
X1411876D1*
X1409975Y330434D1*
X1411876Y332336D1*
X1417624Y334281D1*
X1423328D1*
X1429076Y332336D1*
X1432923Y328533D1*
X1434824Y322785D1*
Y318982D1*
X1432923Y313234D1*
X1429076Y309388D1*
X1423328Y307486D1*
X1417624D1*
X1411876Y309388D1*
X1409975Y311333D1*
X1408030Y315136D1*
X1466321Y307486D2*
Y347634D1*
X1447176Y320884D1*
X1475872D1*
X1490124Y311333D2*
X1488223Y309388D1*
X1490124Y307486D1*
X1492070Y309388D1*
X1490124Y311333D1*
X1527369Y347634D2*
X1508268D1*
X1506367Y330434D1*
X1508268Y332336D1*
X1514016Y334281D1*
X1519720D1*
X1525468Y332336D1*
X1529314Y328533D1*
X1531216Y322785D1*
Y318982D1*
X1529314Y313234D1*
X1525468Y309388D1*
X1519720Y307486D1*
X1514016D1*
X1508268Y309388D1*
X1506367Y311333D1*
X1504421Y315136D1*
X-74304Y903495D2*
X-76205D1*
X-80052Y905396D1*
X-81953Y907297D1*
X-83855Y911144D1*
Y918793D1*
X-81953Y922596D1*
X-80052Y924497D1*
X-76205Y926443D1*
X-72403D1*
X-68556Y924497D1*
X-62852Y920695D1*
X-43707Y901549D1*
Y928344D1*
X-83855Y950246D2*
X-81953Y944542D1*
X-78151Y942597D1*
X-74304D1*
X-70501Y944542D1*
X-68556Y948345D1*
X-66655Y955994D1*
X-64753Y961742D1*
X-60907Y965545D1*
X-57104Y967446D1*
X-51356D1*
X-47554Y965545D1*
X-45608Y963643D1*
X-43707Y957895D1*
Y950246D1*
X-45608Y944542D1*
X-47554Y942597D1*
X-51356Y940695D1*
X-57104D1*
X-60907Y942597D1*
X-64753Y946443D1*
X-66655Y952147D1*
X-68556Y959797D1*
X-70501Y963643D1*
X-74304Y965545D1*
X-78151D1*
X-81953Y963643D1*
X-83855Y957895D1*
Y950246D1*
X-47554Y981698D2*
X-45608Y979797D1*
X-43707Y981698D1*
X-45608Y983644D1*
X-47554Y981698D1*
X-83855Y1005546D2*
X-81953Y999842D1*
X-78151Y997897D1*
X-74304D1*
X-70501Y999842D1*
X-68556Y1003645D1*
X-66655Y1011294D1*
X-64753Y1017042D1*
X-60907Y1020845D1*
X-57104Y1022746D1*
X-51356D1*
X-47554Y1020845D1*
X-45608Y1018943D1*
X-43707Y1013195D1*
Y1005546D1*
X-45608Y999842D1*
X-47554Y997897D1*
X-51356Y995995D1*
X-57104D1*
X-60907Y997897D1*
X-64753Y1001743D1*
X-66655Y1007447D1*
X-68556Y1015097D1*
X-70501Y1018943D1*
X-74304Y1020845D1*
X-78151D1*
X-81953Y1018943D1*
X-83855Y1013195D1*
Y1005546D1*
M02*
