G04 DipTrace 3.0.0.1*
G04 TopSilk.gbr*
%MOIN*%
G04 #@! TF.FileFunction,Legend,Top*
G04 #@! TF.Part,Single*
%ADD10C,0.009843*%
%ADD16O,0.1X0.100103*%
%ADD54C,0.00772*%
%ADD55C,0.015439*%
%ADD56C,0.012351*%
%FSLAX26Y26*%
G04*
G70*
G90*
G75*
G01*
G04 TopSilk*
%LPD*%
X630757Y3749385D2*
D10*
X1430757D1*
Y1899363D1*
X1380757Y1799458D1*
X680757D1*
X630757Y1899363D1*
Y3749385D1*
X780757Y2949552D2*
X1280757D1*
Y1999466D1*
X780757D1*
Y2949552D1*
G36*
X761317Y3730036D2*
X983557D1*
Y3575044D1*
X761317D1*
Y3730036D1*
G37*
X780757Y3749385D2*
D10*
X830757D1*
X780757D1*
G36*
X1003637Y3773867D2*
X1300037D1*
Y3578401D1*
X1003637D1*
Y3773867D1*
G37*
D16*
X880757Y1899462D3*
X780757Y3099409D2*
D10*
X930757D1*
Y2999504D1*
X780757D1*
Y3099409D1*
X1130757D2*
X1280757D1*
Y2999504D1*
X1130757D1*
Y3099409D1*
X829877Y3049160D2*
G02X829877Y3049160I25000J0D01*
G01*
X1182757Y3049654D2*
X1182818Y3051403D1*
X1183001Y3053144D1*
X1183304Y3054867D1*
X1183726Y3056566D1*
X1184265Y3058230D1*
X1184919Y3059853D1*
X1185684Y3061426D1*
X1186556Y3062942D1*
X1187532Y3064393D1*
X1188606Y3065772D1*
X1189774Y3067073D1*
X1191029Y3068288D1*
X1192366Y3069413D1*
X1193777Y3070442D1*
X1195257Y3071370D1*
X1196798Y3072191D1*
X1198392Y3072903D1*
X1200032Y3073502D1*
X1201709Y3073984D1*
X1203416Y3074348D1*
X1205144Y3074592D1*
X1206885Y3074714D1*
X1208630D1*
X1210370Y3074592D1*
X1212098Y3074348D1*
X1213805Y3073984D1*
X1215483Y3073502D1*
X1217122Y3072903D1*
X1218716Y3072191D1*
X1220257Y3071370D1*
X1221737Y3070442D1*
X1223149Y3069413D1*
X1224485Y3068288D1*
X1225741Y3067073D1*
X1226908Y3065772D1*
X1227983Y3064393D1*
X1228958Y3062942D1*
X1229831Y3061426D1*
X1230596Y3059853D1*
X1231250Y3058230D1*
X1231789Y3056566D1*
X1232211Y3054867D1*
X1232514Y3053144D1*
X1232696Y3051403D1*
X1232757Y3049654D1*
X1232696Y3047905D1*
X1232514Y3046164D1*
X1232211Y3044441D1*
X1231789Y3042742D1*
X1231250Y3041078D1*
X1230596Y3039455D1*
X1229831Y3037882D1*
X1228958Y3036366D1*
X1227983Y3034915D1*
X1226908Y3033536D1*
X1225741Y3032236D1*
X1224485Y3031020D1*
X1223149Y3029895D1*
X1221737Y3028866D1*
X1220257Y3027938D1*
X1218716Y3027117D1*
X1217122Y3026405D1*
X1215483Y3025806D1*
X1213805Y3025324D1*
X1212098Y3024960D1*
X1210370Y3024716D1*
X1208630Y3024594D1*
X1206885D1*
X1205144Y3024716D1*
X1203416Y3024960D1*
X1201709Y3025324D1*
X1200032Y3025806D1*
X1198392Y3026405D1*
X1196798Y3027117D1*
X1195257Y3027938D1*
X1193777Y3028866D1*
X1192366Y3029895D1*
X1191029Y3031020D1*
X1189774Y3032236D1*
X1188606Y3033536D1*
X1187532Y3034915D1*
X1186556Y3036366D1*
X1185684Y3037882D1*
X1184919Y3039455D1*
X1184265Y3041078D1*
X1183726Y3042742D1*
X1183304Y3044441D1*
X1183001Y3046164D1*
X1182818Y3047905D1*
X1182757Y3049654D1*
X1669381Y3557374D2*
X2519381D1*
Y2707374D1*
X1669381D1*
Y3557374D1*
X1705068Y2382736D2*
X2430068D1*
Y1882726D1*
X1705068D1*
Y2382736D1*
X1855071Y2032729D2*
Y1932727D1*
X1955048D1*
X1851736Y2029379D2*
X1833176Y1996528D1*
X1855941Y2030779D2*
X1877401Y1996528D1*
X1953091Y1930827D2*
X1931631Y1953677D1*
X1953091Y1930827D2*
X1927353Y1912276D1*
X573279Y3700489D2*
X473277D1*
Y1898427D1*
X573279D1*
Y3700489D1*
X1496897Y1898427D2*
X1596899D1*
Y3700489D1*
X1496897D1*
Y1898427D1*
X1685420Y3701625D2*
X2485347D1*
Y3601623D1*
X1685420D1*
Y3701625D1*
X1488513Y1733121D2*
X2488553D1*
Y1633119D1*
X1488513D1*
Y1733121D1*
X903542Y1547244D2*
X671259D1*
Y1724409D1*
X903542D1*
Y1547244D1*
X1395668D2*
X1163385D1*
Y1724409D1*
X1395668D1*
Y1547244D1*
X2062155Y2596505D2*
X2455856D1*
Y2419340D1*
X2062155D1*
Y2596505D1*
Y2561072D2*
X2455856D1*
X1753658Y2567056D2*
Y2507056D1*
X1913958Y2567056D2*
X1753658D1*
X1913958D2*
Y2507056D1*
X1753658D1*
X509617Y3938035D2*
D54*
Y3899789D1*
X507240Y3892604D1*
X504808Y3890227D1*
X500055Y3887795D1*
X495247D1*
X490494Y3890227D1*
X488117Y3892604D1*
X485685Y3899789D1*
Y3904542D1*
X525056Y3928419D2*
X529865Y3930850D1*
X537050Y3937980D1*
Y3887795D1*
X1526623Y3938035D2*
Y3899789D1*
X1524246Y3892604D1*
X1521814Y3890227D1*
X1517061Y3887795D1*
X1512253D1*
X1507500Y3890227D1*
X1505123Y3892604D1*
X1502691Y3899789D1*
Y3904542D1*
X1544494Y3926042D2*
Y3928419D1*
X1546871Y3933227D1*
X1549247Y3935604D1*
X1554056Y3937980D1*
X1563617D1*
X1568370Y3935604D1*
X1570747Y3933227D1*
X1573179Y3928419D1*
Y3923665D1*
X1570747Y3918857D1*
X1565994Y3911727D1*
X1542062Y3887795D1*
X1575556D1*
X2072883Y3829768D2*
Y3791521D1*
X2070506Y3784336D1*
X2068074Y3781960D1*
X2063321Y3779528D1*
X2058513D1*
X2053760Y3781960D1*
X2051383Y3784336D1*
X2048951Y3791521D1*
Y3796274D1*
X2093130Y3829712D2*
X2119383D1*
X2105069Y3810589D1*
X2112254D1*
X2117007Y3808213D1*
X2119383Y3805836D1*
X2121815Y3798651D1*
Y3793898D1*
X2119383Y3786713D1*
X2114630Y3781904D1*
X2107445Y3779528D1*
X2100260D1*
X2093130Y3781904D1*
X2090754Y3784336D1*
X2088322Y3789089D1*
X1974844Y1596476D2*
Y1558229D1*
X1972467Y1551044D1*
X1970036Y1548668D1*
X1965282Y1546236D1*
X1960474D1*
X1955721Y1548668D1*
X1953344Y1551044D1*
X1950912Y1558229D1*
Y1562982D1*
X2014215Y1546236D2*
Y1596420D1*
X1990283Y1562982D1*
X2026153D1*
X774900Y1510600D2*
Y1472354D1*
X772523Y1465169D1*
X770091Y1462792D1*
X765338Y1460360D1*
X760530D1*
X755777Y1462792D1*
X753400Y1465169D1*
X750968Y1472354D1*
Y1477107D1*
X819024Y1510545D2*
X795148D1*
X792771Y1489045D1*
X795148Y1491422D1*
X802333Y1493854D1*
X809462D1*
X816647Y1491422D1*
X821456Y1486669D1*
X823832Y1479484D1*
Y1474730D1*
X821456Y1467545D1*
X816647Y1462737D1*
X809462Y1460360D1*
X802333D1*
X795148Y1462737D1*
X792771Y1465169D1*
X790339Y1469922D1*
X1268242Y1510600D2*
Y1472354D1*
X1265865Y1465169D1*
X1263433Y1462792D1*
X1258680Y1460360D1*
X1253872D1*
X1249118Y1462792D1*
X1246742Y1465169D1*
X1244310Y1472354D1*
Y1477107D1*
X1312366Y1503415D2*
X1309989Y1508169D1*
X1302804Y1510545D1*
X1298051D1*
X1290866Y1508169D1*
X1286058Y1500983D1*
X1283681Y1489045D1*
Y1477107D1*
X1286058Y1467545D1*
X1290866Y1462737D1*
X1298051Y1460360D1*
X1300428D1*
X1307557Y1462737D1*
X1312366Y1467545D1*
X1314742Y1474730D1*
Y1477107D1*
X1312366Y1484292D1*
X1307557Y1489045D1*
X1300428Y1491422D1*
X1298051D1*
X1290866Y1489045D1*
X1286058Y1484292D1*
X1283681Y1477107D1*
X2078833Y2689413D2*
X2047717D1*
Y2639173D1*
Y2665482D2*
X2066840D1*
X2108643Y2689413D2*
X2103889Y2687092D1*
X2099081Y2682284D1*
X2096704Y2677475D1*
X2094273Y2670290D1*
Y2658352D1*
X2096704Y2651167D1*
X2099081Y2646414D1*
X2103889Y2641605D1*
X2108643Y2639229D1*
X2118204D1*
X2123013Y2641605D1*
X2127766Y2646414D1*
X2130142Y2651167D1*
X2132574Y2658352D1*
Y2670290D1*
X2130142Y2677475D1*
X2127766Y2682284D1*
X2123013Y2687092D1*
X2118204Y2689413D1*
X2108643D1*
X2115828Y2648790D2*
X2130142Y2634420D1*
X2148014Y2663105D2*
X2169569D1*
X2176698Y2665482D1*
X2179130Y2667914D1*
X2181507Y2672667D1*
Y2679852D1*
X2179130Y2684605D1*
X2176698Y2687037D1*
X2169569Y2689413D1*
X2148014D1*
Y2639173D1*
X2228063Y2689413D2*
X2196946D1*
Y2639173D1*
Y2665482D2*
X2216069D1*
X2245934Y2677420D2*
Y2679796D1*
X2248311Y2684605D1*
X2250687Y2686982D1*
X2255496Y2689358D1*
X2265057D1*
X2269810Y2686982D1*
X2272187Y2684605D1*
X2274619Y2679796D1*
Y2675043D1*
X2272187Y2670235D1*
X2267434Y2663105D1*
X2243502Y2639173D1*
X2276995D1*
X2301996D2*
X2325928Y2689358D1*
X2292435D1*
X2341367Y2663105D2*
X2362922D1*
X2370052Y2665482D1*
X2372484Y2667914D1*
X2374861Y2672667D1*
Y2679852D1*
X2372484Y2684605D1*
X2370052Y2687037D1*
X2362922Y2689413D1*
X2341367D1*
Y2639173D1*
X2404670Y2689358D2*
X2397485Y2686982D1*
X2392676Y2679796D1*
X2390300Y2667858D1*
Y2660673D1*
X2392676Y2648735D1*
X2397485Y2641550D1*
X2404670Y2639173D1*
X2409423D1*
X2416608Y2641550D1*
X2421361Y2648735D1*
X2423793Y2660673D1*
Y2667858D1*
X2421361Y2679796D1*
X2416608Y2686982D1*
X2409423Y2689358D1*
X2404670D1*
X2421361Y2679796D2*
X2392676Y2648735D1*
X2467917Y2682228D2*
X2465541Y2686982D1*
X2458356Y2689358D1*
X2453603D1*
X2446418Y2686982D1*
X2441609Y2679796D1*
X2439232Y2667858D1*
Y2655920D1*
X2441609Y2646358D1*
X2446418Y2641550D1*
X2453603Y2639173D1*
X2455979D1*
X2463109Y2641550D1*
X2467917Y2646358D1*
X2470294Y2653543D1*
Y2655920D1*
X2467917Y2663105D1*
X2463109Y2667858D1*
X2455979Y2670235D1*
X2453603D1*
X2446418Y2667858D1*
X2441609Y2663105D1*
X2439232Y2655920D1*
X1782472Y2670033D2*
X1787280Y2672465D1*
X1794465Y2679594D1*
Y2629410D1*
X1824274Y2679594D2*
X1817089Y2677218D1*
X1812281Y2670033D1*
X1809904Y2658094D1*
Y2650909D1*
X1812281Y2638971D1*
X1817089Y2631786D1*
X1824274Y2629410D1*
X1829028D1*
X1836213Y2631786D1*
X1840966Y2638971D1*
X1843398Y2650909D1*
Y2658094D1*
X1840966Y2670033D1*
X1836213Y2677218D1*
X1829028Y2679594D1*
X1824274D1*
X1840966Y2670033D2*
X1812281Y2638971D1*
X1858837Y2679650D2*
Y2629410D1*
X1882769Y2662903D2*
X1858837Y2638971D1*
X1868399Y2648533D2*
X1885145Y2629410D1*
X1079020Y611167D2*
D55*
Y510687D1*
X1045527Y611167D2*
X1112513D1*
X1143392Y577673D2*
Y510687D1*
Y548933D2*
X1148256Y563303D1*
X1157762Y572920D1*
X1167379Y577673D1*
X1181749D1*
X1269997D2*
Y510687D1*
Y563303D2*
X1260491Y572920D1*
X1250874Y577673D1*
X1236614D1*
X1226998Y572920D1*
X1217491Y563303D1*
X1212627Y548933D1*
Y539427D1*
X1217491Y525057D1*
X1226998Y515550D1*
X1236614Y510687D1*
X1250874D1*
X1260491Y515550D1*
X1269997Y525057D1*
X1358356Y563303D2*
X1348739Y572920D1*
X1339122Y577673D1*
X1324863D1*
X1315246Y572920D1*
X1305739Y563303D1*
X1300876Y548933D1*
Y539427D1*
X1305739Y525057D1*
X1315246Y515550D1*
X1324863Y510687D1*
X1339122D1*
X1348739Y515550D1*
X1358356Y525057D1*
X1389235Y611167D2*
Y510687D1*
X1437098Y577673D2*
X1389235Y529810D1*
X1408358Y548933D2*
X1441851Y510687D1*
X1472730Y548933D2*
X1530099D1*
Y558550D1*
X1525346Y568167D1*
X1520593Y572920D1*
X1510976Y577673D1*
X1496606D1*
X1487100Y572920D1*
X1477483Y563303D1*
X1472730Y548933D1*
Y539427D1*
X1477483Y525057D1*
X1487100Y515550D1*
X1496606Y510687D1*
X1510976D1*
X1520593Y515550D1*
X1530099Y525057D1*
X1560978Y577673D2*
Y510687D1*
Y548933D2*
X1565842Y563303D1*
X1575348Y572920D1*
X1584965Y577673D1*
X1599335D1*
X1727415Y591933D2*
X1737032Y596797D1*
X1751402Y611056D1*
Y510687D1*
X1787034Y520303D2*
X1782281Y515440D1*
X1787034Y510687D1*
X1791898Y515440D1*
X1787034Y520303D1*
X1851516Y611056D2*
X1837146Y606303D1*
X1827529Y591933D1*
X1822776Y568056D1*
Y553686D1*
X1827529Y529810D1*
X1837146Y515440D1*
X1851516Y510687D1*
X1861023D1*
X1875393Y515440D1*
X1884899Y529810D1*
X1889763Y553686D1*
Y568056D1*
X1884899Y591933D1*
X1875393Y606303D1*
X1861023Y611056D1*
X1851516D1*
X1884899Y591933D2*
X1827529Y529810D1*
X1534673Y1585523D2*
D54*
X1539482Y1587955D1*
X1546667Y1595084D1*
Y1544900D1*
X1711839Y3809932D2*
X1716647Y3812364D1*
X1723832Y3819494D1*
Y3769309D1*
X511051Y3790247D2*
X515860Y3792679D1*
X523045Y3799809D1*
Y3749624D1*
X491366Y1841428D2*
X496175Y1843860D1*
X503360Y1850990D1*
Y1800805D1*
X530737Y1850990D2*
X523608Y1848613D1*
X521176Y1843860D1*
Y1839052D1*
X523608Y1834299D1*
X528361Y1831867D1*
X537922Y1829490D1*
X545107Y1827114D1*
X549861Y1822305D1*
X552237Y1817552D1*
Y1810367D1*
X549861Y1805614D1*
X547484Y1803182D1*
X540299Y1800805D1*
X530737D1*
X523608Y1803182D1*
X521176Y1805614D1*
X518799Y1810367D1*
Y1817552D1*
X521176Y1822305D1*
X525984Y1827114D1*
X533114Y1829490D1*
X542676Y1831867D1*
X547484Y1834299D1*
X549861Y1839052D1*
Y1843860D1*
X547484Y1848613D1*
X540299Y1850990D1*
X530737D1*
X1518848Y1837569D2*
X1523656Y1840001D1*
X1530841Y1847130D1*
Y1796946D1*
X1577397Y1830439D2*
X1574966Y1823254D1*
X1570212Y1818446D1*
X1563027Y1816069D1*
X1560651D1*
X1553466Y1818446D1*
X1548713Y1823254D1*
X1546281Y1830439D1*
Y1832816D1*
X1548713Y1840001D1*
X1553466Y1844754D1*
X1560651Y1847130D1*
X1563027D1*
X1570212Y1844754D1*
X1574966Y1840001D1*
X1577397Y1830439D1*
Y1818446D1*
X1574966Y1806507D1*
X1570212Y1799322D1*
X1563027Y1796946D1*
X1558274D1*
X1551089Y1799322D1*
X1548713Y1804131D1*
X1503971Y3815634D2*
X1530224D1*
X1515910Y3796511D1*
X1523095D1*
X1527848Y3794134D1*
X1530224Y3791758D1*
X1532656Y3784573D1*
Y3779820D1*
X1530224Y3772635D1*
X1525471Y3767826D1*
X1518286Y3765450D1*
X1511101D1*
X1503971Y3767826D1*
X1501595Y3770258D1*
X1499163Y3775011D1*
X1576780Y3808505D2*
X1574404Y3813258D1*
X1567219Y3815634D1*
X1562466D1*
X1555281Y3813258D1*
X1550472Y3806073D1*
X1548096Y3794134D1*
Y3782196D1*
X1550472Y3772635D1*
X1555281Y3767826D1*
X1562466Y3765450D1*
X1564842D1*
X1571972Y3767826D1*
X1576780Y3772635D1*
X1579157Y3779820D1*
Y3782196D1*
X1576780Y3789381D1*
X1571972Y3794134D1*
X1564842Y3796511D1*
X1562466D1*
X1555281Y3794134D1*
X1550472Y3789381D1*
X1548096Y3782196D1*
X1422238Y1508920D2*
Y1465865D1*
X1400738Y1487365D2*
X1443793D1*
X930112Y1508920D2*
Y1465865D1*
X908612Y1487365D2*
X951667D1*
X495585Y1595167D2*
X493209Y1599921D1*
X488400Y1604729D1*
X483647Y1607106D1*
X474086D1*
X469277Y1604729D1*
X464524Y1599921D1*
X462092Y1595167D1*
X459715Y1587982D1*
Y1575989D1*
X462092Y1568859D1*
X464524Y1564051D1*
X469277Y1559297D1*
X474086Y1556866D1*
X483647D1*
X488400Y1559297D1*
X493209Y1564051D1*
X495585Y1568859D1*
Y1575989D1*
X483647D1*
X544518Y1607106D2*
Y1556866D1*
X511025Y1607106D1*
Y1556866D1*
X559957Y1607106D2*
Y1556866D1*
X576704D1*
X583889Y1559297D1*
X588697Y1564051D1*
X591074Y1568859D1*
X593451Y1575989D1*
Y1587982D1*
X591074Y1595167D1*
X588697Y1599921D1*
X583889Y1604729D1*
X576704Y1607106D1*
X559957D1*
X810533Y3453890D2*
D56*
X845021D1*
X856429Y3457693D1*
X860320Y3461584D1*
X864122Y3469189D1*
Y3480685D1*
X860320Y3488290D1*
X856429Y3492181D1*
X845021Y3495984D1*
X810533D1*
Y3415600D1*
X934721Y3469189D2*
Y3415600D1*
Y3457693D2*
X927116Y3465386D1*
X919422Y3469189D1*
X908015D1*
X900321Y3465386D1*
X892716Y3457693D1*
X888825Y3446197D1*
Y3438592D1*
X892716Y3427096D1*
X900321Y3419491D1*
X908015Y3415600D1*
X919422D1*
X927116Y3419491D1*
X934721Y3427096D1*
X959424Y3469189D2*
Y3415600D1*
Y3446197D2*
X963315Y3457693D1*
X970920Y3465386D1*
X978613Y3469189D1*
X990109D1*
X1026308Y3495984D2*
Y3430898D1*
X1030111Y3419491D1*
X1037804Y3415600D1*
X1045409D1*
X1014812Y3469189D2*
X1041607D1*
X1070112Y3495984D2*
X1073915Y3492181D1*
X1077806Y3495984D1*
X1073915Y3499875D1*
X1070112Y3495984D1*
X1073915Y3469189D2*
Y3415600D1*
X1148493Y3457693D2*
X1140799Y3465386D1*
X1133106Y3469189D1*
X1121698D1*
X1114004Y3465386D1*
X1106399Y3457693D1*
X1102508Y3446197D1*
Y3438592D1*
X1106399Y3427096D1*
X1114004Y3419491D1*
X1121698Y3415600D1*
X1133106D1*
X1140799Y3419491D1*
X1148493Y3427096D1*
X1173195Y3495984D2*
Y3415600D1*
X1197898Y3446197D2*
X1243794D1*
Y3453890D1*
X1239992Y3461584D1*
X1236189Y3465386D1*
X1228495Y3469189D1*
X1216999D1*
X1209394Y3465386D1*
X1201701Y3457693D1*
X1197898Y3446197D1*
Y3438592D1*
X1201701Y3427096D1*
X1209394Y3419491D1*
X1216999Y3415600D1*
X1228495D1*
X1236189Y3419491D1*
X1243794Y3427096D1*
X843351Y3369424D2*
X793653D1*
Y3289040D1*
X843351D1*
X793653Y3331133D2*
X824250D1*
X868054Y3369424D2*
Y3289040D1*
X892757Y3319637D2*
X938653D1*
Y3327331D1*
X934850Y3335024D1*
X931048Y3338827D1*
X923354Y3342629D1*
X911858D1*
X904253Y3338827D1*
X896559Y3331133D1*
X892757Y3319637D1*
Y3312032D1*
X896559Y3300536D1*
X904253Y3292931D1*
X911858Y3289040D1*
X923354D1*
X931048Y3292931D1*
X938653Y3300536D1*
X1009340Y3331133D2*
X1001646Y3338827D1*
X993953Y3342629D1*
X982545D1*
X974852Y3338827D1*
X967246Y3331133D1*
X963355Y3319637D1*
Y3312032D1*
X967246Y3300536D1*
X974852Y3292931D1*
X982545Y3289040D1*
X993953D1*
X1001646Y3292931D1*
X1009340Y3300536D1*
X1045539Y3369424D2*
Y3304338D1*
X1049341Y3292931D1*
X1057035Y3289040D1*
X1064640D1*
X1034043Y3342629D2*
X1060837D1*
X1089343D2*
Y3289040D1*
Y3319637D2*
X1093234Y3331133D1*
X1100839Y3338827D1*
X1108532Y3342629D1*
X1120028D1*
X1163832D2*
X1156227Y3338827D1*
X1148534Y3331133D1*
X1144731Y3319637D1*
Y3312032D1*
X1148534Y3300536D1*
X1156227Y3292931D1*
X1163832Y3289040D1*
X1175328D1*
X1183022Y3292931D1*
X1190627Y3300536D1*
X1194518Y3312032D1*
Y3319637D1*
X1190627Y3331133D1*
X1183022Y3338827D1*
X1175328Y3342629D1*
X1163832D1*
X1219221D2*
Y3289040D1*
Y3327331D2*
X1230717Y3338827D1*
X1238410Y3342629D1*
X1249818D1*
X1257511Y3338827D1*
X1261314Y3327331D1*
Y3289040D1*
X886766Y2125291D2*
X925057D1*
X936464Y2129093D1*
X940355Y2136787D1*
Y2148283D1*
X936464Y2155888D1*
X925057Y2167384D1*
X886766D2*
X940355D1*
X900207Y2192087D2*
Y2236302D1*
X859971Y2261005D2*
X940355D1*
X898262D2*
X890568Y2268699D1*
X886766Y2276304D1*
Y2287800D1*
X890568Y2295405D1*
X898262Y2303098D1*
X909758Y2306901D1*
X917363D1*
X928859Y2303098D1*
X936464Y2295405D1*
X940355Y2287800D1*
Y2276304D1*
X936464Y2268699D1*
X928859Y2261005D1*
X859971Y2331604D2*
X940355D1*
X886766Y2375408D2*
X890568Y2367803D1*
X898262Y2360109D1*
X909758Y2356307D1*
X917363D1*
X928859Y2360109D1*
X936464Y2367803D1*
X940355Y2375408D1*
Y2386904D1*
X936464Y2394597D1*
X928859Y2402202D1*
X917363Y2406093D1*
X909758D1*
X898262Y2402202D1*
X890568Y2394597D1*
X886766Y2386904D1*
Y2375408D1*
Y2430796D2*
X940355Y2472889D1*
X886766D2*
X940355Y2430796D1*
X1884826Y3169652D2*
X1919314D1*
X1930722Y3173454D1*
X1934613Y3177345D1*
X1938416Y3184950D1*
Y3196447D1*
X1934613Y3204052D1*
X1930722Y3207943D1*
X1919314Y3211745D1*
X1884826D1*
Y3131361D1*
X2024401D2*
X1993716Y3211745D1*
X1963118Y3131361D1*
X1974614Y3158156D2*
X2012905D1*
X2110298Y3131361D2*
Y3211745D1*
X2079701Y3131361D1*
X2049104Y3211745D1*
Y3131361D1*
X2150300D2*
X2188591Y3211657D1*
X2135001D1*
X2236286Y3211745D2*
X2228680Y3208031D1*
X2220987Y3200337D1*
X2217184Y3192644D1*
X2213293Y3181148D1*
Y3162047D1*
X2217184Y3150551D1*
X2220987Y3142946D1*
X2228680Y3135252D1*
X2236286Y3131450D1*
X2251584D1*
X2259278Y3135252D1*
X2266883Y3142946D1*
X2270685Y3150551D1*
X2274576Y3162047D1*
Y3181148D1*
X2270685Y3192644D1*
X2266883Y3200337D1*
X2259278Y3208031D1*
X2251584Y3211745D1*
X2236286D1*
X2247782Y3146748D2*
X2270685Y3123756D1*
X1864674Y2232817D2*
X1833989Y2313201D1*
X1803391Y2232817D1*
X1814888Y2259612D2*
X1853178D1*
X1889377Y2313201D2*
Y2232817D1*
X1916172D1*
X1927668Y2236708D1*
X1935361Y2244313D1*
X1939164Y2252007D1*
X1942966Y2263415D1*
Y2282604D1*
X1939164Y2294100D1*
X1935361Y2301705D1*
X1927668Y2309399D1*
X1916172Y2313201D1*
X1889377D1*
X1967669D2*
X2021259Y2232817D1*
Y2313201D2*
X1967669Y2232817D1*
X2045961Y2313201D2*
Y2232817D1*
X2091857D1*
X2124253Y2313113D2*
X2166258D1*
X2143355Y2282516D1*
X2154851D1*
X2162456Y2278713D1*
X2166258Y2274911D1*
X2170149Y2263415D1*
Y2255810D1*
X2166258Y2244313D1*
X2158653Y2236620D1*
X2147157Y2232817D1*
X2135661D1*
X2124253Y2236620D1*
X2120451Y2240511D1*
X2116560Y2248116D1*
X2233143Y2232817D2*
Y2313113D1*
X2194852Y2259612D1*
X2252244D1*
X2322843Y2313113D2*
X2284640D1*
X2280838Y2278713D1*
X2284640Y2282516D1*
X2296136Y2286407D1*
X2307544D1*
X2319040Y2282516D1*
X2326734Y2274911D1*
X2330536Y2263415D1*
Y2255810D1*
X2326734Y2244313D1*
X2319040Y2236620D1*
X2307544Y2232817D1*
X2296136D1*
X2284640Y2236620D1*
X2280838Y2240511D1*
X2276947Y2248116D1*
X1915114Y2207499D2*
Y2127115D1*
X1949602D1*
X1961098Y2131006D1*
X1964901Y2134809D1*
X1968703Y2142414D1*
Y2153910D1*
X1964901Y2161603D1*
X1961098Y2165406D1*
X1949602Y2169208D1*
X1961098Y2173099D1*
X1964901Y2176902D1*
X1968703Y2184507D1*
Y2192201D1*
X1964901Y2199806D1*
X1961098Y2203697D1*
X1949602Y2207499D1*
X1915114D1*
Y2169208D2*
X1949602D1*
X2012507Y2180705D2*
X2004902Y2176902D1*
X1997209Y2169208D1*
X1993406Y2157712D1*
Y2150107D1*
X1997209Y2138611D1*
X2004902Y2131006D1*
X2012507Y2127115D1*
X2024003D1*
X2031697Y2131006D1*
X2039302Y2138611D1*
X2043193Y2150107D1*
Y2157712D1*
X2039302Y2169208D1*
X2031697Y2176902D1*
X2024003Y2180705D1*
X2012507D1*
X2113791D2*
Y2127115D1*
Y2169208D2*
X2106186Y2176902D1*
X2098493Y2180705D1*
X2087085D1*
X2079392Y2176902D1*
X2071787Y2169208D1*
X2067896Y2157712D1*
Y2150107D1*
X2071787Y2138611D1*
X2079392Y2131006D1*
X2087085Y2127115D1*
X2098493D1*
X2106186Y2131006D1*
X2113791Y2138611D1*
X2138494Y2180705D2*
Y2127115D1*
Y2157712D2*
X2142385Y2169208D1*
X2149990Y2176902D1*
X2157684Y2180705D1*
X2169180D1*
X2239779Y2207499D2*
Y2127115D1*
Y2169208D2*
X2232173Y2176902D1*
X2224480Y2180705D1*
X2212984D1*
X2205379Y2176902D1*
X2197685Y2169208D1*
X2193883Y2157712D1*
Y2150107D1*
X2197685Y2138611D1*
X2205379Y2131006D1*
X2212984Y2127115D1*
X2224480D1*
X2232173Y2131006D1*
X2239779Y2138611D1*
X1897279Y2062102D2*
X1939372Y2008513D1*
Y2062102D2*
X1897279Y2008513D1*
X1979035Y1988000D2*
X2001939Y1934411D1*
X1994334Y1919113D1*
X1986640Y1911419D1*
X1979035Y1907616D1*
X1975144D1*
X2024931Y1988000D2*
X2001939Y1934411D1*
M02*
